#!OML:ASF F:\VICON\USERDATA\INSTALL\rory3\rory3.ASF
:FULLY-SPECIFIED
:DEGREES
875
root 0.66227 15.7087 -4.12026 -18.3661 -40.9931 3.0886
lowerback 22.1843 2.68839 -3.75282
upperback 10.9447 2.46467 2.36002
thorax -0.675121 0.863879 4.11596
lowerneck -23.289 5.37647 -5.25326
upperneck 20.1757 7.86248 5.60155
head 9.76761 3.90946 3.98093
rclavicle -5.26779e-014 1.98785e-014
rhumerus -21.4163 6.67298 -82.1335
rradius 85.0934
rwrist 37.5541
rhand -25.9938 10.0514
rfingers 7.12502
rthumb 0.551732 -19.9276
lclavicle -5.26779e-014 1.98785e-014
lhumerus -18.8957 -16.2272 91.4428
lradius 66.0129
lwrist -15.356
lhand -19.5251 16.835
lfingers 7.12502
lthumb 6.79829 46.7059
rfemur -79.5006 -36.6355 33.1638
rtibia 138.006
rfoot 0.589265 -2.07759
rtoes 7.20606
lfemur -50.6734 38.4085 -14.5607
ltibia 116.835
lfoot 8.44255 -20.8611
ltoes -25.4552
876
root 0.662551 15.7142 -4.12302 -18.373 -41.0322 3.09703
lowerback 22.1643 2.7144 -3.74096
upperback 10.9594 2.50089 2.36022
thorax -0.652421 0.881554 4.10171
lowerneck -23.3433 5.39027 -5.22355
upperneck 20.1748 7.87906 5.58082
head 9.77818 3.91693 3.97358
rclavicle 4.4329e-014 -2.94201e-014
rhumerus -21.4161 6.64527 -82.1055
rradius 85.1031
rwrist 37.5279
rhand -26.0142 9.9914
rfingers 7.12502
rthumb 0.532078 -19.9877
lclavicle 4.4329e-014 -2.94201e-014
lhumerus -18.8789 -16.2306 91.4652
lradius 66.0017
lwrist -15.3501
lhand -19.5138 16.8354
lfingers 7.12502
lthumb 6.80919 46.7059
rfemur -79.4638 -36.6328 33.2102
rtibia 137.952
rfoot 0.580475 -2.10398
rtoes 7.16179
lfemur -50.9065 38.3508 -14.507
ltibia 116.818
lfoot 9.2917 -20.6955
ltoes -23.6724
877
root 0.662503 15.7101 -4.12229 -18.3887 -41.0169 3.1417
lowerback 22.1561 2.71661 -3.75944
upperback 10.9416 2.50143 2.35375
thorax -0.66834 0.882475 4.10503
lowerneck -23.4321 5.42539 -5.25625
upperneck 20.2718 7.92555 5.65239
head 9.82026 3.9427 4.01825
rclavicle 6.55989e-014 -4.85035e-014
rhumerus -21.4841 6.63109 -82.0745
rradius 85.1617
rwrist 37.5058
rhand -25.9713 10.0525
rfingers 7.12502
rthumb 0.573448 -19.9265
lclavicle 6.55989e-014 -4.85035e-014
lhumerus -18.9188 -16.2047 91.4987
lradius 66.0312
lwrist -15.3623
lhand -19.559 16.8511
lfingers 7.12502
lthumb 6.76554 46.7231
rfemur -79.5449 -36.6512 33.2327
rtibia 137.966
rfoot 0.587578 -2.14806
rtoes 6.82823
lfemur -50.8049 38.4179 -14.572
ltibia 116.828
lfoot 8.95656 -20.7854
ltoes -24.2915
878
root 0.662925 15.7143 -4.12367 -18.3956 -40.9875 3.16556
lowerback 22.142 2.71442 -3.78988
upperback 10.9324 2.4942 2.3573
thorax -0.6717 0.878206 4.12805
lowerneck -23.3711 5.39008 -5.27208
upperneck 20.1233 7.90982 5.5315
head 9.76317 3.92266 3.96683
rclavicle -4.49253e-014 1.66979e-014
rhumerus -21.4975 6.64713 -82.0568
rradius 85.1822
rwrist 37.4493
rhand -25.9276 10.1194
rfingers 7.12502
rthumb 0.615717 -19.8594
lclavicle -4.49253e-014 1.66979e-014
lhumerus -18.9424 -16.1757 91.5188
lradius 66.0202
lwrist -15.3924
lhand -19.6417 16.8435
lfingers 7.12502
lthumb 6.68568 46.7179
rfemur -79.5289 -36.6921 33.1893
rtibia 137.943
rfoot 0.635024 -2.08046
rtoes 6.7843
lfemur -50.9763 38.3058 -14.6292
ltibia 116.816
lfoot 9.29814 -20.6691
ltoes -23.5021
879
root 0.661521 15.7091 -4.12305 -18.3895 -41.0049 3.12604
lowerback 22.1465 2.72324 -3.7806
upperback 10.9457 2.5073 2.3839
thorax -0.661442 0.883553 4.14858
lowerneck -23.2841 5.32655 -5.30053
upperneck 19.8775 7.86867 5.36697
head 9.67042 3.88701 3.89352
rclavicle -6.06293e-014 -5.56597e-015
rhumerus -21.4742 6.65302 -82.0403
rradius 85.1705
rwrist 37.4549
rhand -25.8779 10.1257
rfingers 7.12502
rthumb 0.663713 -19.853
lclavicle -6.06293e-014 -5.56597e-015
lhumerus -18.8951 -16.1532 91.5353
lradius 66.0042
lwrist -15.4152
lhand -19.5104 16.8032
lfingers 7.12502
lthumb 6.81248 46.6736
rfemur -79.5197 -36.6269 33.1897
rtibia 137.98
rfoot 0.645616 -2.05208
rtoes 6.96156
lfemur -50.687 38.4625 -14.5602
ltibia 116.816
lfoot 8.59283 -20.893
ltoes -25.1407
880
root 0.661257 15.707 -4.12187 -18.3958 -41.0128 3.10146
lowerback 22.154 2.71122 -3.72763
upperback 10.951 2.50072 2.36959
thorax -0.656505 0.882289 4.10432
lowerneck -23.264 5.29805 -5.36277
upperneck 19.7793 7.84894 5.37168
head 9.63051 3.87637 3.89698
rclavicle 4.57205e-015 -1.74931e-014
rhumerus -21.482 6.68182 -82.073
rradius 85.1602
rwrist 37.4494
rhand -26.0202 10.0883
rfingers 7.12502
rthumb 0.526218 -19.8908
lclavicle 4.57205e-015 -1.74931e-014
lhumerus -18.8452 -16.1347 91.5073
lradius 65.9649
lwrist -15.4101
lhand -19.4122 16.8302
lfingers 7.12502
lthumb 6.90728 46.6975
rfemur -79.4931 -36.6214 33.2135
rtibia 137.985
rfoot 0.657143 -2.01317
rtoes 6.72993
lfemur -50.5781 38.5391 -14.5169
ltibia 116.826
lfoot 8.37548 -21.0014
ltoes -25.6236
